<mxfile host="app.diagrams.net" agent="Mozilla/5.0 (Windows NT 10.0; Win64; x64) AppleWebKit/537.36 (KHTML, like Gecko) Chrome/136.0.0.0 Safari/537.36 Edg/136.0.0.0" version="27.0.9">
  <diagram id="C5RBs43oDa-KdzZeNtuy" name="Page-1">
    <mxGraphModel dx="2362" dy="1997" grid="1" gridSize="10" guides="1" tooltips="1" connect="1" arrows="1" fold="1" page="1" pageScale="1" pageWidth="827" pageHeight="1169" math="0" shadow="0">
      <root>
        <mxCell id="WIyWlLk6GJQsqaUBKTNV-0" />
        <mxCell id="WIyWlLk6GJQsqaUBKTNV-1" parent="WIyWlLk6GJQsqaUBKTNV-0" />
        <mxCell id="d1ulREdzGkFlkCyW7pFy-38" value="" style="shape=ext;double=1;rounded=0;whiteSpace=wrap;html=1;fontFamily=Helvetica;fontSize=18;fontColor=default;labelBackgroundColor=default;" vertex="1" parent="WIyWlLk6GJQsqaUBKTNV-1">
          <mxGeometry x="180" y="-40" width="400" height="340" as="geometry" />
        </mxCell>
        <mxCell id="d1ulREdzGkFlkCyW7pFy-0" value="路径规划模块" style="whiteSpace=wrap;strokeWidth=2;strokeColor=light-dark(#9370db, #ededed);align=center;verticalAlign=middle;fontFamily=Helvetica;fontSize=18;fontColor=default;fillColor=light-dark(#ececff, #392f3f);" vertex="1" parent="WIyWlLk6GJQsqaUBKTNV-1">
          <mxGeometry x="-160" y="-40" width="90" height="54" as="geometry" />
        </mxCell>
        <mxCell id="d1ulREdzGkFlkCyW7pFy-28" style="edgeStyle=orthogonalEdgeStyle;rounded=0;orthogonalLoop=1;jettySize=auto;html=1;entryX=0.5;entryY=1;entryDx=0;entryDy=0;" edge="1" parent="WIyWlLk6GJQsqaUBKTNV-1" source="d1ulREdzGkFlkCyW7pFy-2" target="d1ulREdzGkFlkCyW7pFy-10">
          <mxGeometry relative="1" as="geometry" />
        </mxCell>
        <mxCell id="d1ulREdzGkFlkCyW7pFy-2" value="模拟砖类型、位置信息" style="whiteSpace=wrap;strokeWidth=2;strokeColor=light-dark(#9370db, #ededed);align=center;verticalAlign=middle;fontFamily=Helvetica;fontSize=18;fontColor=default;fillColor=light-dark(#ececff, #392f3f);" vertex="1" parent="WIyWlLk6GJQsqaUBKTNV-1">
          <mxGeometry x="-37" y="170" width="142" height="62" as="geometry" />
        </mxCell>
        <mxCell id="d1ulREdzGkFlkCyW7pFy-27" value="" style="edgeStyle=orthogonalEdgeStyle;rounded=0;orthogonalLoop=1;jettySize=auto;html=1;" edge="1" parent="WIyWlLk6GJQsqaUBKTNV-1" source="d1ulREdzGkFlkCyW7pFy-3" target="d1ulREdzGkFlkCyW7pFy-10">
          <mxGeometry relative="1" as="geometry" />
        </mxCell>
        <mxCell id="d1ulREdzGkFlkCyW7pFy-3" value="一次抓取位姿调整" style="whiteSpace=wrap;strokeWidth=2;strokeColor=light-dark(#9370db, #ededed);align=center;verticalAlign=middle;fontFamily=Helvetica;fontSize=18;fontColor=default;fillColor=light-dark(#ececff, #392f3f);" vertex="1" parent="WIyWlLk6GJQsqaUBKTNV-1">
          <mxGeometry x="220" y="103" width="150" height="54" as="geometry" />
        </mxCell>
        <mxCell id="d1ulREdzGkFlkCyW7pFy-30" value="" style="edgeStyle=orthogonalEdgeStyle;rounded=0;orthogonalLoop=1;jettySize=auto;html=1;" edge="1" parent="WIyWlLk6GJQsqaUBKTNV-1" source="d1ulREdzGkFlkCyW7pFy-10" target="d1ulREdzGkFlkCyW7pFy-29">
          <mxGeometry relative="1" as="geometry" />
        </mxCell>
        <mxCell id="d1ulREdzGkFlkCyW7pFy-10" value="二次抓取位姿调整" style="whiteSpace=wrap;strokeWidth=2;strokeColor=light-dark(#9370db, #ededed);align=center;verticalAlign=middle;fontFamily=Helvetica;fontSize=18;fontColor=default;fillColor=light-dark(#ececff, #392f3f);" vertex="1" parent="WIyWlLk6GJQsqaUBKTNV-1">
          <mxGeometry x="420" y="103" width="146" height="54" as="geometry" />
        </mxCell>
        <mxCell id="d1ulREdzGkFlkCyW7pFy-21" value="" style="shape=flexArrow;endArrow=classic;html=1;rounded=0;strokeColor=light-dark(#9370db, #ededed);strokeWidth=2;align=center;verticalAlign=middle;fontFamily=Helvetica;fontSize=18;fontColor=default;fillColor=light-dark(#ececff, #392f3f);edgeStyle=orthogonalEdgeStyle;" edge="1" parent="WIyWlLk6GJQsqaUBKTNV-1" source="d1ulREdzGkFlkCyW7pFy-0" target="d1ulREdzGkFlkCyW7pFy-26">
          <mxGeometry width="50" height="50" relative="1" as="geometry">
            <mxPoint x="33.66" y="20" as="sourcePoint" />
            <mxPoint x="33.659999999999854" y="-19.999999999999773" as="targetPoint" />
          </mxGeometry>
        </mxCell>
        <mxCell id="d1ulREdzGkFlkCyW7pFy-22" value="分类定位模块" style="whiteSpace=wrap;strokeWidth=2;strokeColor=light-dark(#9370db, #ededed);align=center;verticalAlign=middle;fontFamily=Helvetica;fontSize=18;fontColor=default;fillColor=light-dark(#ececff, #392f3f);" vertex="1" parent="WIyWlLk6GJQsqaUBKTNV-1">
          <mxGeometry x="-170" y="260" width="90" height="54" as="geometry" />
        </mxCell>
        <mxCell id="d1ulREdzGkFlkCyW7pFy-31" value="" style="edgeStyle=orthogonalEdgeStyle;rounded=0;orthogonalLoop=1;jettySize=auto;html=1;" edge="1" parent="WIyWlLk6GJQsqaUBKTNV-1" source="d1ulREdzGkFlkCyW7pFy-23" target="d1ulREdzGkFlkCyW7pFy-3">
          <mxGeometry relative="1" as="geometry" />
        </mxCell>
        <mxCell id="d1ulREdzGkFlkCyW7pFy-23" value="" style="strokeWidth=2;html=1;shape=mxgraph.flowchart.annotation_2;align=left;labelPosition=right;pointerEvents=1;rotation=-180;" vertex="1" parent="WIyWlLk6GJQsqaUBKTNV-1">
          <mxGeometry x="105" y="60" width="90" height="140" as="geometry" />
        </mxCell>
        <mxCell id="d1ulREdzGkFlkCyW7pFy-26" value="结构拼装顺序" style="whiteSpace=wrap;strokeWidth=2;strokeColor=light-dark(#9370db, #ededed);align=center;verticalAlign=middle;fontFamily=Helvetica;fontSize=18;fontColor=default;fillColor=light-dark(#ececff, #392f3f);" vertex="1" parent="WIyWlLk6GJQsqaUBKTNV-1">
          <mxGeometry x="-27" y="38" width="132" height="44" as="geometry" />
        </mxCell>
        <mxCell id="d1ulREdzGkFlkCyW7pFy-29" value="拼装模拟砖" style="whiteSpace=wrap;html=1;fontSize=18;fillColor=light-dark(#ececff, #392f3f);strokeColor=light-dark(#9370db, #ededed);strokeWidth=2;" vertex="1" parent="WIyWlLk6GJQsqaUBKTNV-1">
          <mxGeometry x="610" y="100" width="120" height="60" as="geometry" />
        </mxCell>
        <mxCell id="d1ulREdzGkFlkCyW7pFy-35" value="" style="shape=flexArrow;endArrow=classic;html=1;rounded=0;strokeColor=light-dark(#9370db, #ededed);strokeWidth=2;align=center;verticalAlign=middle;fontFamily=Helvetica;fontSize=18;fontColor=default;fillColor=light-dark(#ececff, #392f3f);edgeStyle=orthogonalEdgeStyle;entryX=0.5;entryY=1;entryDx=0;entryDy=0;" edge="1" parent="WIyWlLk6GJQsqaUBKTNV-1" source="d1ulREdzGkFlkCyW7pFy-22" target="d1ulREdzGkFlkCyW7pFy-2">
          <mxGeometry width="50" height="50" relative="1" as="geometry">
            <mxPoint x="49" y="341" as="sourcePoint" />
            <mxPoint x="-60" y="290" as="targetPoint" />
          </mxGeometry>
        </mxCell>
      </root>
    </mxGraphModel>
  </diagram>
</mxfile>
